<svg xmlns="http://www.w3.org/2000/svg" width="25.822" height="25.821" viewBox="0 0 25.822 25.821">
  <g id="sound-bars-pulse" transform="translate(-37 59.821)">
    <g id="Group_39" data-name="Group 39" transform="translate(37 -59.821)">
      <g id="Group_32" data-name="Group 32" transform="translate(0 8.277)">
        <path id="Path_2041" data-name="Path 2041" d="M1.324,24.334A1.324,1.324,0,0,1,0,23.01V16.39a1.324,1.324,0,0,1,2.648,0v6.62A1.325,1.325,0,0,1,1.324,24.334Z" transform="translate(0 -15.066)" fill="#acacac"/>
      </g>
      <g id="Group_33" data-name="Group 33" transform="translate(3.862 4.965)">
        <path id="Path_2042" data-name="Path 2042" d="M8.354,24.929A1.324,1.324,0,0,1,7.03,23.6V10.362a1.324,1.324,0,1,1,2.648,0V23.6A1.324,1.324,0,0,1,8.354,24.929Z" transform="translate(-7.03 -9.038)" fill="#acacac"/>
      </g>
      <g id="Group_34" data-name="Group 34" transform="translate(7.724 6.621)">
        <path id="Path_2043" data-name="Path 2043" d="M15.384,24.631a1.324,1.324,0,0,1-1.324-1.324V13.376a1.324,1.324,0,0,1,2.649,0v9.931A1.325,1.325,0,0,1,15.384,24.631Z" transform="translate(-14.06 -12.052)" fill="#acacac"/>
      </g>
      <g id="Group_35" data-name="Group 35" transform="translate(11.587 3.311)">
        <path id="Path_2044" data-name="Path 2044" d="M22.414,25.227A1.324,1.324,0,0,1,21.09,23.9V7.35a1.324,1.324,0,0,1,2.648,0V23.9A1.324,1.324,0,0,1,22.414,25.227Z" transform="translate(-21.09 -6.026)" fill="#acacac"/>
      </g>
      <g id="Group_36" data-name="Group 36" transform="translate(15.448)">
        <path id="Path_2045" data-name="Path 2045" d="M29.443,25.821A1.324,1.324,0,0,1,28.119,24.5V1.324a1.324,1.324,0,1,1,2.648,0V24.5A1.324,1.324,0,0,1,29.443,25.821Z" transform="translate(-28.119)" fill="#acacac"/>
      </g>
      <g id="Group_37" data-name="Group 37" transform="translate(19.312 4.965)">
        <path id="Path_2046" data-name="Path 2046" d="M36.475,24.929A1.324,1.324,0,0,1,35.151,23.6V10.362a1.324,1.324,0,1,1,2.648,0V23.6A1.324,1.324,0,0,1,36.475,24.929Z" transform="translate(-35.151 -9.038)" fill="#acacac"/>
      </g>
      <g id="Group_38" data-name="Group 38" transform="translate(23.173 9.932)">
        <path id="Path_2047" data-name="Path 2047" d="M43.5,24.036a1.324,1.324,0,0,1-1.324-1.323V19.4a1.324,1.324,0,1,1,2.648,0v3.311A1.324,1.324,0,0,1,43.5,24.036Z" transform="translate(-42.18 -18.078)" fill="#acacac"/>
      </g>
    </g>
  </g>
</svg>
