<svg id="compact-disk" xmlns="http://www.w3.org/2000/svg" xmlns:xlink="http://www.w3.org/1999/xlink" width="27.354" height="27.353" viewBox="0 0 27.354 27.353">
  <defs>
    <linearGradient id="linear-gradient" x1="0.5" x2="0.5" y2="1" gradientUnits="objectBoundingBox">
      <stop offset="0" stop-color="#00fc74"/>
      <stop offset="1" stop-color="#fff"/>
    </linearGradient>
  </defs>
  <path id="Path_2049" data-name="Path 2049" d="M13.677,0A13.677,13.677,0,1,0,27.353,13.677,13.692,13.692,0,0,0,13.677,0ZM25.751,13.677a12,12,0,0,1-1.333,5.51l-5.273-3.164A5.951,5.951,0,0,0,11.33,8.208L8.166,2.935A12.071,12.071,0,0,1,25.751,13.677ZM20.56,23.591,17.4,18.32a6.016,6.016,0,0,0,.923-.923l5.27,3.162A12.174,12.174,0,0,1,20.56,23.591ZM6.794,3.763l3.162,5.27a6.016,6.016,0,0,0-.923.923L3.763,6.794A12.174,12.174,0,0,1,6.794,3.763Zm6.883,5.565a4.349,4.349,0,1,1-4.349,4.349A4.354,4.354,0,0,1,13.677,9.328ZM1.6,13.677a12,12,0,0,1,1.333-5.51L8.208,11.33a5.951,5.951,0,0,0,7.816,7.816l3.164,5.273A12.071,12.071,0,0,1,1.6,13.677Z" fill="url(#linear-gradient)"/>
  <path id="Path_2050" data-name="Path 2050" d="M211.385,213.9a2.518,2.518,0,1,0-2.518-2.518A2.521,2.521,0,0,0,211.385,213.9Zm0-3.433a.915.915,0,1,1-.915.915A.916.916,0,0,1,211.385,210.469Z" transform="translate(-197.708 -197.707)" fill="url(#linear-gradient)"/>
</svg>
