<svg xmlns="http://www.w3.org/2000/svg" width="23.117" height="23.117" viewBox="0 0 23.117 23.117">
  <g id="add" transform="translate(-221 -104.742)">
    <g id="Group_41" data-name="Group 41" transform="translate(221 104.741)">
      <path id="Path_2051" data-name="Path 2051" d="M21.863,9.947H13.171V1.255A1.559,1.559,0,0,0,11.559,0,1.559,1.559,0,0,0,9.946,1.255V9.947H1.254A1.559,1.559,0,0,0,0,11.559a1.559,1.559,0,0,0,1.254,1.613H9.946v8.691a1.559,1.559,0,0,0,1.613,1.254,1.559,1.559,0,0,0,1.613-1.254V13.172h8.691a1.559,1.559,0,0,0,1.254-1.613A1.559,1.559,0,0,0,21.863,9.947Z" fill="#fff"/>
    </g>
  </g>
</svg>
